<svg width="500" height="500" viewBox="0 0 500 500" fill="none" xmlns="http://www.w3.org/2000/svg">
<path d="M388.406 183C403.739 183 415.742 196.201 414.289 211.465L403.552 314.205C400.638 344.793 379.864 369.711 352.137 379.043C352.056 379.07 352.001 379.147 352.001 379.232V387C352.001 398.045 343.046 407 332.001 407H168.001C156.955 407 148.001 398.046 148.001 387V379.232C148.001 379.147 147.945 379.07 147.864 379.043C120.137 369.712 99.3612 344.793 96.448 314.205L85.7107 211.465C84.2572 196.201 96.2607 183 111.594 183H388.406ZM111.155 201.012C106.655 201.254 103.205 205.199 103.628 209.741L114.35 312.334L114.359 312.416L114.367 312.498C116.588 335.821 132.426 354.856 153.605 361.983C160.969 364.462 166.001 371.373 166.001 379.232V387C166.001 388.104 166.896 389 168.001 389H196.258C199.944 370.609 219.451 337 268.464 337C293.012 337 309.868 345.512 320.769 356.751C327.272 363.455 331.514 370.985 334.048 377.937C334.566 370.621 339.441 364.324 346.396 361.983L347.385 361.641C368.065 354.26 383.446 335.457 385.633 312.498L385.64 312.416L385.649 312.334L396.371 209.74C396.793 205.198 393.345 201.254 388.845 201.012L388.406 201H111.594L111.155 201.012ZM239 356.949C221.645 364.969 213.423 379.354 210.655 389H239V356.949ZM268.464 351C262.827 351 257.685 351.521 253 352.453V389H279V351.652C275.729 351.229 272.222 351 268.464 351ZM293 389H322.644C321.442 382.637 317.931 373.932 310.72 366.499C306.398 362.043 300.634 357.926 293 355.057V389ZM197.147 313.867C200.174 312.519 203.721 313.881 205.069 316.908L205.883 318.735C207.23 321.762 205.868 325.308 202.842 326.656L178.176 337.639C175.148 338.986 171.601 337.625 170.254 334.598L169.44 332.771C168.093 329.743 169.454 326.196 172.481 324.849L197.147 313.867ZM266 220C294.719 220 318 243.281 318 272C318 300.719 294.719 324 266 324C237.281 324 214 300.719 214 272C214 243.281 237.281 220 266 220ZM256.466 275.991C251.672 282.071 246.942 286.18 242.105 288.835C239.195 290.433 236.383 291.426 233.712 292.04C240.417 302.821 252.369 310 266 310C279.292 310 290.987 303.174 297.778 292.838C290.656 292.575 283.981 291.881 277.849 290.039C269.696 287.589 262.719 283.218 256.466 275.991ZM193 285.079C196.313 285.079 199 287.765 199 291.079V293.079C199 296.393 196.313 299.079 193 299.079H166C162.686 299.079 160 296.393 160 293.079V291.079C160 287.765 162.686 285.079 166 285.079H193ZM266 234C245.013 234 228 251.013 228 272C228 274.303 228.205 276.558 228.597 278.748C230.899 278.447 233.081 277.818 235.368 276.563C239.233 274.441 244.102 270.133 249.999 260.91L250.139 260.696C253.162 256.292 259.737 256.377 262.644 260.889C268.731 270.336 274.805 274.506 281.878 276.631C287.762 278.399 294.558 278.846 303.362 278.96C303.78 276.704 304 274.377 304 272C304 251.013 286.987 234 266 234ZM170.254 248.481C171.601 245.454 175.148 244.093 178.176 245.44L202.842 256.422C205.869 257.77 207.23 261.317 205.883 264.344L205.069 266.171C203.721 269.198 200.174 270.56 197.147 269.212L172.481 258.23C169.454 256.883 168.093 253.336 169.44 250.309L170.254 248.481ZM250 117C356.129 117 401.218 149.01 409.365 159.979C409.807 160.573 410 161.3 410 162.041V167C410 169.209 408.209 171 406 171H93.9998C91.7907 171 89.9998 169.209 89.9998 167V162.041C89.9998 161.3 90.1929 160.573 90.6365 159.979C98.8348 149.012 144.832 117 250 117ZM250 93C265.714 93 272.119 92.942 273 102.899V107C273 109.209 271.209 111 269 111H231C228.791 111 227 109.209 227 107V102.899C227.881 92.9421 234.429 93 250 93Z" fill="#FFA033"/>
</svg>
