<svg width="500" height="500" viewBox="0 0 500 500" fill="none" xmlns="http://www.w3.org/2000/svg">
<path d="M388.815 183C404.148 183 416.152 196.201 414.698 211.465L403.961 314.205C401.048 344.793 380.273 369.711 352.547 379.043C352.465 379.07 352.41 379.147 352.41 379.232V387C352.41 398.045 343.455 407 332.41 407H168.41C157.364 407 148.41 398.046 148.41 387V379.232C148.41 379.147 148.354 379.07 148.273 379.043C120.547 369.712 99.7704 344.793 96.8572 314.205L86.1199 211.465C84.6663 196.201 96.6699 183 112.003 183H388.815ZM111.564 201.012C107.064 201.254 103.614 205.199 104.037 209.741L114.76 312.334L114.768 312.416L114.776 312.498C116.997 335.821 132.836 354.856 154.014 361.983C161.378 364.462 166.41 371.373 166.41 379.232V387C166.41 388.104 167.305 389 168.41 389H181.667C185.353 370.609 204.86 337 253.873 337C278.421 337 295.277 345.512 306.178 356.751C316.388 367.276 321.031 379.837 322.223 389H332.41C333.446 389 334.298 388.212 334.4 387.204L334.41 387V379.232C334.41 371.373 339.442 364.462 346.805 361.983L347.794 361.641C368.475 354.26 383.855 335.457 386.042 312.498L386.05 312.416L386.058 312.334L396.78 209.74C397.202 205.198 393.754 201.254 389.255 201.012L388.815 201H112.004L111.564 201.012ZM224.409 356.949C207.054 364.969 198.832 379.354 196.064 389H224.409V356.949ZM253.873 351C248.237 351 243.094 351.521 238.409 352.453V389H264.409V351.652C261.138 351.229 257.631 351 253.873 351ZM278.409 389H308.053C306.851 382.637 303.34 373.932 296.13 366.499C291.807 362.043 286.043 357.926 278.409 355.057V389ZM182.556 313.867C185.584 312.519 189.13 313.881 190.478 316.908L191.292 318.735C192.639 321.762 191.278 325.308 188.251 326.656L163.585 337.639C160.558 338.986 157.011 337.625 155.663 334.598L154.849 332.771C153.502 329.743 154.863 326.196 157.89 324.849L182.556 313.867ZM251.409 220C280.128 220 303.409 243.281 303.409 272C303.409 300.719 280.128 324 251.409 324C222.69 324 199.409 300.719 199.409 272C199.409 243.281 222.69 220 251.409 220ZM241.875 275.991C237.081 282.071 232.351 286.18 227.514 288.835C224.604 290.433 221.792 291.426 219.121 292.04C225.826 302.821 237.778 310 251.409 310C264.701 310 276.396 303.174 283.187 292.838C276.065 292.575 269.39 291.881 263.259 290.039C255.105 287.589 248.128 283.218 241.875 275.991ZM178.409 285.079C181.723 285.079 184.409 287.765 184.409 291.079V293.079C184.409 296.393 181.723 299.079 178.409 299.079H151.409C148.095 299.079 145.409 296.393 145.409 293.079V291.079C145.409 287.765 148.095 285.079 151.409 285.079H178.409ZM251.409 234C230.422 234 213.409 251.013 213.409 272C213.409 274.303 213.614 276.558 214.007 278.748C216.308 278.447 218.491 277.818 220.777 276.563C224.642 274.441 229.511 270.133 235.408 260.91L235.549 260.696C238.571 256.292 245.146 256.377 248.053 260.889C254.141 270.336 260.214 274.506 267.287 276.631C273.171 278.399 279.967 278.846 288.77 278.96C289.188 276.703 289.409 274.377 289.409 272C289.409 251.013 272.396 234 251.409 234ZM155.663 248.481C157.011 245.454 160.558 244.093 163.585 245.44L188.251 256.422C191.278 257.77 192.639 261.317 191.292 264.344L190.478 266.171C189.131 269.198 185.584 270.56 182.556 269.212L157.89 258.23C154.863 256.883 153.502 253.336 154.849 250.309L155.663 248.481ZM250.409 117C356.538 117 401.627 149.01 409.774 159.979C410.216 160.573 410.409 161.3 410.409 162.041V167C410.409 169.209 408.618 171 406.409 171H94.4089C92.1999 171 90.4089 169.209 90.4089 167V162.041C90.409 161.3 90.6021 160.573 91.0457 159.979C99.244 149.012 145.241 117 250.409 117ZM250.409 93C266.123 93 272.528 92.942 273.409 102.899V107C273.409 109.209 271.618 111 269.409 111H231.409C229.2 111 227.409 109.209 227.409 107V102.899C228.29 92.9421 234.838 93 250.409 93Z" fill="#FFA033"/>
</svg>
