<svg width="500" height="500" viewBox="0 0 500 500" fill="none" xmlns="http://www.w3.org/2000/svg">
<path d="M388.815 122C404.148 122 416.152 135.201 414.698 150.465L403.961 253.205C401.048 283.793 380.273 308.711 352.547 318.043C352.465 318.07 352.41 318.147 352.41 318.232V326C352.41 337.045 343.455 346 332.41 346H168.41C157.364 346 148.41 337.046 148.41 326V318.232C148.41 318.147 148.354 318.07 148.273 318.043C120.547 308.712 99.7704 283.793 96.8572 253.205L86.1199 150.465C84.6663 135.201 96.6699 122 112.003 122H388.815ZM111.564 140.012C107.064 140.254 103.614 144.199 104.037 148.741L114.76 251.334L114.768 251.416L114.776 251.498C116.997 274.821 132.836 293.856 154.014 300.983C161.378 303.462 166.41 310.373 166.41 318.232V326C166.41 327.104 167.305 328 168.41 328H181.667C185.353 309.609 204.86 276 253.873 276C278.421 276 295.277 284.512 306.178 295.751C316.388 306.276 321.031 318.837 322.223 328H332.41C333.446 328 334.298 327.212 334.4 326.204L334.41 326V318.232C334.41 310.373 339.442 303.462 346.805 300.983L347.794 300.641C368.475 293.26 383.855 274.457 386.042 251.498L386.05 251.416L386.058 251.334L396.78 148.74C397.202 144.198 393.754 140.254 389.255 140.012L388.815 140H112.004L111.564 140.012ZM224.409 295.949C207.054 303.969 198.832 318.354 196.064 328H224.409V295.949ZM253.873 290C248.237 290 243.094 290.521 238.409 291.453V328H264.409V290.652C261.138 290.229 257.631 290 253.873 290ZM278.409 328H308.053C306.851 321.637 303.34 312.932 296.13 305.499C291.807 301.043 286.043 296.926 278.409 294.057V328ZM182.556 252.867C185.584 251.519 189.13 252.881 190.478 255.908L191.292 257.735C192.639 260.762 191.278 264.308 188.251 265.656L163.585 276.639C160.558 277.986 157.011 276.625 155.663 273.598L154.849 271.771C153.502 268.743 154.863 265.196 157.89 263.849L182.556 252.867ZM251.409 159C280.128 159 303.409 182.281 303.409 211C303.409 239.719 280.128 263 251.409 263C222.69 263 199.409 239.719 199.409 211C199.409 182.281 222.69 159 251.409 159ZM241.875 214.991C237.081 221.071 232.351 225.18 227.514 227.835C224.604 229.433 221.792 230.426 219.121 231.04C225.826 241.821 237.778 249 251.409 249C264.701 249 276.396 242.174 283.187 231.838C276.065 231.575 269.39 230.881 263.259 229.039C255.105 226.589 248.128 222.218 241.875 214.991ZM178.409 224.079C181.723 224.079 184.409 226.765 184.409 230.079V232.079C184.409 235.393 181.723 238.079 178.409 238.079H151.409C148.095 238.079 145.409 235.393 145.409 232.079V230.079C145.409 226.765 148.095 224.079 151.409 224.079H178.409ZM251.409 173C230.422 173 213.409 190.013 213.409 211C213.409 213.303 213.614 215.558 214.007 217.748C216.308 217.447 218.491 216.818 220.777 215.563C224.642 213.441 229.511 209.133 235.408 199.91L235.549 199.696C238.571 195.292 245.146 195.377 248.053 199.889C254.141 209.336 260.214 213.506 267.287 215.631C273.171 217.399 279.967 217.846 288.77 217.96C289.188 215.703 289.409 213.377 289.409 211C289.409 190.013 272.396 173 251.409 173ZM155.663 187.481C157.011 184.454 160.558 183.093 163.585 184.44L188.251 195.422C191.278 196.77 192.639 200.317 191.292 203.344L190.478 205.171C189.131 208.198 185.584 209.56 182.556 208.212L157.89 197.23C154.863 195.883 153.502 192.336 154.849 189.309L155.663 187.481ZM250.409 56C356.538 56 401.627 88.0104 409.774 98.9785C410.216 99.5732 410.409 100.3 410.409 101.041V106C410.409 108.209 408.618 110 406.409 110H94.4089C92.1999 110 90.4089 108.209 90.4089 106V101.041C90.409 100.3 90.6021 99.5729 91.0457 98.9795C99.244 88.0125 145.241 56.0001 250.409 56ZM250.409 32C266.123 32 272.528 31.942 273.409 41.8994V46C273.409 48.2091 271.618 50 269.409 50H231.409C229.2 49.9999 227.409 48.2091 227.409 46V41.8994C228.29 31.9421 234.838 32 250.409 32Z" fill="#FFA033"/>
<path d="M347.326 451.536C344.012 451.536 341.326 448.85 341.326 445.536V384.96C341.326 381.646 344.012 378.96 347.326 378.96H348.126C351.44 378.96 354.126 381.646 354.126 384.96V445.536C354.126 448.85 351.44 451.536 348.126 451.536H347.326ZM258.11 392.656C254.796 392.656 252.11 389.97 252.11 386.656V386.368C252.11 383.054 254.796 380.368 258.11 380.368H325.598C328.912 380.368 331.598 383.054 331.598 386.368V444.256C331.598 447.57 328.912 450.256 325.598 450.256H324.798C321.484 450.256 318.798 447.57 318.798 444.256V392.656H258.11Z" fill="#FFA033"/>
<path d="M151.424 451.536C148.11 451.536 145.424 448.85 145.424 445.536V436.544C145.424 433.23 148.11 430.544 151.424 430.544H152.224C155.538 430.544 158.224 433.23 158.224 436.544V439.248H240.544C243.858 439.248 246.544 441.934 246.544 445.248V445.536C246.544 448.85 243.858 451.536 240.544 451.536H151.424ZM149.12 427.856C145.806 427.856 143.12 425.17 143.12 421.856V421.568C143.12 418.254 145.806 415.568 149.12 415.568H188.944V412.24C155.92 411.6 143.376 405.2 143.376 395.088C143.376 384.592 157.456 377.808 195.344 377.808C232.976 377.808 247.312 384.592 247.312 395.088C247.312 405.2 234.64 411.6 201.744 412.24V415.568H241.568C244.882 415.568 247.568 418.254 247.568 421.568V421.856C247.568 425.17 244.882 427.856 241.568 427.856H149.12ZM156.176 395.088C156.176 397.136 163.728 400.08 195.344 400.08C226.832 400.08 234.512 397.136 234.512 395.088C234.512 393.296 226.832 390.096 195.344 390.096C163.728 390.096 156.176 393.296 156.176 395.088Z" fill="#FFA033"/>
</svg>
